<mxfile host="app.diagrams.net" modified="2024-03-21T10:49:41.723Z" agent="Mozilla/5.0 (Windows NT 10.0; Win64; x64) AppleWebKit/537.36 (KHTML, like Gecko) Chrome/122.0.0.0 Safari/537.36 Edg/122.0.0.0" version="24.0.7" etag="G4NIFxk5wvXf3_uKXhJB" type="github">
  <diagram name="Page-1" id="1W70HVjiUWDVr5uHCjMV">
    <mxGraphModel>
      <root>
        <mxCell id="0" />
        <mxCell id="1" parent="0" />
      </root>
    </mxGraphModel>
  </diagram>
</mxfile>
